<?xml version="1.0" encoding="utf-8"?>
<!-- Generator: Adobe Illustrator 23.0.1, SVG Export Plug-In . SVG Version: 6.00 Build 0)  -->
<svg version="1.1" id="jh_logo" shape-rendering="crispEdges"
	 xmlns="http://www.w3.org/2000/svg" xmlns:xlink="http://www.w3.org/1999/xlink" x="0px" y="0px" viewBox="0 0 1100 1100"
	 style="enable-background:new 0 0 1100 1100;" xml:space="preserve">
<style type="text/css">
	.st0{fill:none;stroke:#000000;stroke-width:5;stroke-linecap:round;stroke-miterlimit:10;}
	.st1{stroke:#000000;stroke-width:5;stroke-linecap:round;stroke-miterlimit:10;}
</style>
<g>
	<path class="st0" d="M96.6,325.7l13.6,6.8L83,346l27.2,13.6L83,373.2l27.2,13.6l-13.6,6.8"/>
	<path class="st0" d="M96.6,674.7V393.6"/>
	<path class="st0" d="M96.6,325.7V131.4"/>
	<path class="st0" d="M345.7,45.4v49"/>
	<path class="st1" d="M96.6,583.1c0.3,0,0.6-0.1,1,0c0.3,0.1,0.6,0.4,0.9,0.7c0.2,0.4,0.3,0.8,0.3,1.3c-0.1,0.5-0.3,0.9-0.6,1.3
		c-0.4,0.4-0.9,0.6-1.4,0.7c-0.6,0.1-1.2,0-1.8-0.3c-0.6-0.3-1-0.8-1.3-1.4c-0.3-0.6-0.4-1.4-0.3-2.1c0.1-0.7,0.5-1.4,1.1-2
		c0.6-0.5,1.4-0.9,2.2-1c0.9-0.1,1.8,0.1,2.6,0.6c0.8,0.5,1.5,1.2,1.8,2.1c0.4,0.9,0.5,1.9,0.3,2.9c-0.2,1-0.8,2-1.6,2.7
		c-0.8,0.7-1.9,1.2-3,1.3c-1.1,0.1-2.3-0.2-3.4-0.8c-1-0.6-1.9-1.6-2.3-2.8c-0.5-1.2-0.6-2.5-0.3-3.8c0.3-1.3,1.1-2.5,2.1-3.3
		c1.1-0.9,2.4-1.4,3.8-1.5c1.4-0.1,2.9,0.3,4.2,1.1c1.2,0.8,2.3,2,2.8,3.4c0.6,1.4,0.7,3.1,0.3,4.6c-0.4,1.5-1.3,3-2.6,4
		s-2.9,1.7-4.6,1.8c-1.7,0-3.4-0.5-4.8-1.6c-1.4-1-2.4-2.5-3-4.1s-0.5-3.4,0-5c0.5-1.6,1.6-3.1,3-4.1c1.4-1,3.1-1.6,4.8-1.6
		s3.4,0.6,4.8,1.6c1.4,1,2.4,2.4,3,4.1c0.5,1.6,0.6,3.5,0,5s-1.8,2.8-3,4.1s-3-2.7-4.8-6.6"/>
	<path class="st0" d="M96.6,584.4H61.9"/>
	<path class="st0" d="M53.8,592.6c-4.5,0-8.1-3.6-8.1-8.1c0-4.5,3.6-8.1,8.1-8.1s8.1,3.6,8.1,8.1C61.9,588.9,58.3,592.6,53.8,592.6z
		"/>
	<path class="st0" d="M96.6,208.8H53.8"/>
	<path class="st0" d="M45.6,217c-4.5,0-8.1-3.6-8.1-8.1s3.6-8.1,8.1-8.1s8.1,3.6,8.1,8.1S50.1,217,45.6,217z"/>
	<path class="st0" d="M122.9,815.9H68.6v-32.6h54.3V815.9z"/>
	<path class="st0" d="M179.2,44.5l166.5,0"/>
	<path class="st0" d="M96.6,130.4l82.6,0"/>
	<path class="st0" d="M179.2,129.9l0-84.5"/>
	<path class="st0" d="M179.6,881.9h86"/>
	<path class="st0" d="M265.7,967.9l0-86"/>
	<path class="st0" d="M179.2,881.9v-82.2"/>
	<path class="st0" d="M125,799.7l54.6,0"/>
	<path class="st0" d="M96.8,782.1V674.7"/>
	<path class="st1" d="M181.2,799.6c0.1,0.5,0.1,0.9-0.1,1.4s-0.6,0.9-1.1,1.3s-1.2,0.5-1.9,0.4c-0.7-0.1-1.4-0.4-1.9-0.9
		s-1-1.3-1.1-2.1s0-1.8,0.4-2.6c0.4-0.8,1.2-1.5,2.1-2c0.9-0.4,2-0.6,3.1-0.4c1.1,0.2,2.1,0.8,2.9,1.7s1.3,2,1.5,3.3
		c0.1,1.3-0.1,2.6-0.8,3.8s-1.8,2.1-3.1,2.7s-2.9,0.7-4.3,0.4s-2.9-1.2-3.9-2.4s-1.7-2.8-1.9-4.5s0.3-3.4,1.2-4.9s2.4-2.7,4.1-3.4
		c1.7-0.7,3.7-0.8,5.6-0.4c1.9,0.5,3.6,1.6,4.9,3.1s2.1,3.6,2.2,5.6c0.1,2.1-0.4,4.3-1.6,6.1s-3,3.3-5.1,4.2c-2.1,0.8-4.5,1-6.8,0.4
		s-4.4-1.9-5.9-3.8c-1.6-1.9-2.5-4.3-2.6-6.8c-0.1-2.5,0.8-5,2.3-7.1s3.6-3.6,6-4.4s5-0.8,7.4,0c2.4,0.8,4.5,2.3,6,4.4
		s2.3,4.5,2.3,7.1c0,2.5-0.8,5-2.3,7.1s-3.6,3.6-6,4.4s-5.1,0.9-7.4,0s-4.1-2.6-6-4.4s3.9-4.4,9.7-7.1"/>
	<path class="st0" d="M514.7,987.9h-80v-40h80V987.9z"/>
	<path class="st0" d="M846.9,968.2H514.7"/>
	<path class="st0" d="M434.7,967.9h-169"/>
	<path class="st0" d="M436.7,1019.9l14-14"/>
	<path class="st0" d="M440.7,1005.9h10v10"/>
	<path class="st0" d="M466.7,1019.9l14-14"/>
	<path class="st0" d="M470.7,1005.9h10v10"/>
	<path class="st1" d="M649.7,965.9c0.5-0.1,0.9-0.1,1.4,0.1c0.5,0.2,0.9,0.6,1.3,1.1c0.3,0.5,0.5,1.2,0.4,1.9s-0.4,1.4-0.9,1.9
		c-0.5,0.6-1.3,1-2.1,1.1c-0.8,0.1-1.8,0-2.6-0.4c-0.8-0.4-1.5-1.2-2-2.1s-0.6-2-0.4-3.1c0.2-1.1,0.8-2.1,1.7-2.9s2-1.3,3.3-1.5
		c1.3-0.1,2.6,0.1,3.8,0.8c1.2,0.7,2.1,1.8,2.7,3.1s0.7,2.9,0.4,4.3s-1.2,2.9-2.4,3.9s-2.8,1.7-4.5,1.9c-1.7,0.1-3.4-0.3-4.9-1.2
		s-2.7-2.4-3.4-4.1s-0.8-3.7-0.4-5.6c0.5-1.9,1.6-3.6,3.1-4.9c1.5-1.3,3.6-2.1,5.6-2.2s4.3,0.4,6.1,1.6c1.8,1.2,3.3,3,4.2,5.1
		s1,4.5,0.4,6.8s-1.9,4.4-3.8,5.9c-1.9,1.6-4.3,2.5-6.8,2.6s-5-0.8-7.1-2.3s-3.6-3.6-4.4-6s-0.8-5,0-7.4c0.8-2.4,2.3-4.5,4.4-6
		c2-1.5,4.5-2.3,7.1-2.3c2.5,0,5,0.8,7.1,2.3c2,1.5,3.6,3.6,4.4,6c0.8,2.4,0.9,5.1,0,7.4s-2.6,4.1-4.4,6s-4.4-3.9-7.1-9.7"/>
	<path class="st0" d="M649.7,967.9v78"/>
	<path class="st0" d="M649.7,1069.9c-6.6,0-12-5.4-12-12s5.4-12,12-12s12,5.4,12,12S656.3,1069.9,649.7,1069.9z"/>
	<path class="st0" d="M265.6,967.9v-86"/>
	<path class="st0" d="M867.7,930.9h-40v-80h40V930.9z"/>
	<path class="st0" d="M911.6,881.7l-43.8,0"/>
	<path class="st0" d="M846.9,930.9v35.4"/>
	<path class="st0" d="M795.7,852.9l14,14"/>
	<path class="st0" d="M809.7,856.9v10h-10"/>
	<path class="st0" d="M795.7,882.9l14,14"/>
	<path class="st0" d="M809.7,886.9v10h-10"/>
	<path class="st0" d="M1030.4,601.9h-26.2v-52.5h26.2V601.9z"/>
	<path class="st0" d="M1017,471.3v78.1"/>
	<path class="st0" d="M1017.2,601.9v197.5"/>
	<path class="st0" d="M976.4,825.9c-14.5,0-26.2-11.8-26.2-26.2c0-14.5,11.8-26.2,26.2-26.2c14.5,0,26.2,11.8,26.2,26.2
		C1002.6,814.1,990.9,825.9,976.4,825.9z"/>
	<path class="st0" d="M994.9,781.1l-37.1,37.1"/>
	<path class="st0" d="M957.8,781.1l37.1,37.1"/>
	<path class="st0" d="M1017.4,799.4h-14.8"/>
	<path class="st0" d="M950.1,799.7h-18.9"/>
	<path class="st0" d="M950.9,896.7h-39.4v-39.4h39.4V896.7z"/>
	<path class="st0" d="M931.3,799.6v57.7"/>
	<path class="st0" d="M261.4,548.3h83.2"/>
	<path class="st0" d="M260.4,630.2v-81.3"/>
	<path class="st0" d="M766.3,632.3h83.2"/>
	<path class="st0" d="M766.4,548.8V632"/>
	<path class="st1" d="M1017.2,686.5c0.3,0,0.6-0.1,0.9,0c0.3,0.1,0.6,0.4,0.8,0.7c0.2,0.3,0.3,0.8,0.2,1.2c-0.1,0.4-0.3,0.9-0.6,1.3
		s-0.8,0.6-1.4,0.7c-0.5,0.1-1.2,0-1.7-0.3c-0.5-0.3-1-0.8-1.3-1.4c-0.3-0.6-0.4-1.3-0.2-2s0.5-1.4,1.1-1.9c0.6-0.5,1.3-0.9,2.2-1
		c0.8-0.1,1.7,0.1,2.5,0.5s1.4,1.2,1.8,2s0.5,1.9,0.2,2.8c-0.2,1-0.8,1.9-1.6,2.6c-0.8,0.7-1.8,1.1-2.9,1.2
		c-1.1,0.1-2.3-0.2-3.2-0.8c-1-0.6-1.8-1.6-2.3-2.7s-0.6-2.4-0.2-3.7c0.3-1.2,1-2.4,2-3.2c1-0.8,2.3-1.4,3.7-1.5
		c1.4-0.1,2.8,0.3,4,1c1.2,0.8,2.2,1.9,2.7,3.3c0.5,1.4,0.6,3,0.2,4.5c-0.4,1.5-1.3,2.9-2.5,3.9c-1.2,1-2.8,1.7-4.5,1.7
		c-1.6,0-3.3-0.5-4.6-1.5c-1.3-1-2.4-2.4-2.9-3.9c-0.5-1.6-0.5-3.3,0-4.9c0.5-1.6,1.5-3,2.9-3.9c1.3-1,3-1.5,4.6-1.5
		s3.3,0.5,4.6,1.5s2.3,2.4,2.9,3.9c0.5,1.6,0.6,3.4,0,4.9c-0.6,1.5-1.7,2.7-2.9,3.9c-1.2,1.2-2.9-2.6-4.6-6.4"/>
	<path class="st0" d="M1017.2,687.8h37.4v-26.9"/>
	<path class="st0" d="M1054.6,660.9c-4.3,0-7.9-3.5-7.9-7.9s3.5-7.9,7.9-7.9c4.3,0,7.9,3.5,7.9,7.9S1059,660.9,1054.6,660.9z"/>
	<path class="st0" d="M201.6,464.8c0,3.6,2.9,6.6,6.6,6.6s6.6-2.9,6.6-6.6s-2.9-6.6-6.6-6.6S201.6,461.1,201.6,464.8z"/>
	<path class="st0" d="M199.6,464.8l-21,0"/>
	<path class="st0" d="M1017,130.9l0,340.3"/>
	<path class="st1" d="M261.5,381.6c-0.1,0.5-0.1,0.9,0.1,1.4c0.2,0.5,0.6,0.9,1.1,1.3s1.2,0.5,1.9,0.4c0.7-0.1,1.4-0.4,1.9-0.9
		c0.6-0.5,1-1.3,1.1-2.1c0.1-0.8,0-1.8-0.4-2.6c-0.4-0.8-1.2-1.5-2.1-2s-2-0.6-3.1-0.4c-1.1,0.2-2.1,0.8-2.9,1.7s-1.3,2-1.5,3.3
		s0.1,2.6,0.8,3.8c0.7,1.2,1.8,2.1,3.1,2.7s2.9,0.7,4.3,0.4s2.9-1.2,3.9-2.4s1.7-2.8,1.9-4.5c0.1-1.7-0.3-3.4-1.2-4.9
		c-0.9-1.5-2.4-2.7-4.1-3.4s-3.7-0.8-5.6-0.4s-3.6,1.6-4.9,3.1c-1.3,1.5-2.1,3.6-2.2,5.6c-0.1,2.1,0.4,4.3,1.6,6.1
		c1.2,1.8,3,3.3,5.1,4.2s4.5,1,6.8,0.4c2.3-0.6,4.4-1.9,5.9-3.8s2.5-4.3,2.6-6.8c0.1-2.5-0.8-5-2.3-7.1s-3.6-3.6-6-4.4s-5-0.8-7.4,0
		s-4.5,2.3-6,4.4s-2.3,4.5-2.3,7.1c0,2.5,0.8,5,2.3,7.1c1.5,2,3.6,3.6,6,4.4s5.1,0.9,7.4,0c2.3-0.9,4.1-2.6,6-4.4
		c1.9-1.8-3.9-4.4-9.7-7.1"/>
	<path class="st1" d="M429.6,130.9c0,0.4,0.1,0.8-0.1,1.2c-0.1,0.4-0.5,0.8-0.9,1.1c-0.5,0.3-1,0.4-1.6,0.3s-1.2-0.3-1.7-0.8
		c-0.5-0.5-0.8-1.1-0.9-1.8c-0.1-0.7,0-1.5,0.4-2.3c0.4-0.7,1-1.3,1.8-1.7s1.8-0.5,2.7-0.3c0.9,0.2,1.9,0.7,2.5,1.4
		c0.7,0.8,1.2,1.8,1.3,2.9c0.1,1.1-0.1,2.3-0.7,3.3c-0.6,1-1.5,1.9-2.7,2.4s-2.5,0.6-3.8,0.3c-1.3-0.3-2.5-1-3.4-2.1
		s-1.5-2.4-1.6-3.9c-0.1-1.5,0.2-3,1.1-4.3c0.8-1.3,2.1-2.4,3.6-3c1.5-0.6,3.2-0.7,4.9-0.3c1.6,0.4,3.2,1.4,4.3,2.7
		c1.1,1.3,1.8,3.1,1.9,4.9s-0.4,3.7-1.4,5.3s-2.6,2.9-4.4,3.6c-1.8,0.7-4,0.9-5.9,0.3c-2-0.5-3.8-1.7-5.2-3.3
		c-1.4-1.7-2.2-3.8-2.3-5.9s0.7-4.4,2-6.2s3.2-3.1,5.2-3.8c2.1-0.7,4.4-0.7,6.5,0c2.1,0.7,3.9,2,5.2,3.8s2,4,2,6.2
		c0,2.2-0.7,4.4-2,6.2c-1.3,1.8-3.1,3.1-5.2,3.8c-2.1,0.7-4.5,0.7-6.5,0c-2-0.7-3.6-2.3-5.2-3.8c-1.6-1.5,3.4-3.8,8.5-6.2"/>
	<path class="st1" d="M429.6,214c0,0.4,0.1,0.8-0.1,1.2c-0.1,0.4-0.5,0.8-0.9,1.1c-0.5,0.3-1,0.4-1.6,0.3s-1.2-0.3-1.7-0.8
		c-0.5-0.5-0.8-1.1-0.9-1.8c-0.1-0.7,0-1.5,0.4-2.3c0.4-0.7,1-1.3,1.8-1.7s1.8-0.5,2.7-0.3c0.9,0.2,1.9,0.7,2.5,1.4s1.2,1.8,1.3,2.9
		c0.1,1.1-0.1,2.3-0.7,3.3c-0.6,1-1.5,1.9-2.7,2.4s-2.5,0.6-3.8,0.3c-1.3-0.3-2.5-1-3.4-2.1s-1.5-2.4-1.6-3.9
		c-0.1-1.5,0.2-3,1.1-4.3c0.8-1.3,2.1-2.4,3.6-3c1.5-0.6,3.2-0.7,4.9-0.3c1.6,0.4,3.2,1.4,4.3,2.7c1.1,1.3,1.8,3.1,1.9,4.9
		c0.1,1.8-0.4,3.7-1.4,5.3s-2.6,2.9-4.4,3.6c-1.8,0.7-4,0.9-5.9,0.3c-2-0.5-3.8-1.7-5.2-3.3c-1.4-1.7-2.2-3.8-2.3-5.9s0.7-4.4,2-6.2
		s3.2-3.1,5.2-3.8c2.1-0.7,4.4-0.7,6.5,0c2.1,0.7,3.9,2,5.2,3.8c1.3,1.8,2,4,2,6.2c0,2.2-0.7,4.4-2,6.2c-1.3,1.8-3.1,3.1-5.2,3.8
		c-2.1,0.7-4.5,0.7-6.5,0c-2-0.7-3.6-2.3-5.2-3.8c-1.6-1.5,3.4-3.8,8.5-6.2"/>
	<path class="st0" d="M564.8,196.5h-43.6l21.8-31.4L564.8,196.5z"/>
	<path class="st0" d="M551.7,196.5V214"/>
	<path class="st0" d="M534.3,196.5V214"/>
	<path class="st0" d="M681.7,213.8h-130"/>
	<path class="st0" d="M534.3,214H427.9"/>
	<path class="st0" d="M427.8,219.6v-88.7"/>
	<path class="st0" d="M327.3,165.8V96h41.9v69.8H327.3z"/>
	<path class="st0" d="M429.6,130.5h-58.4"/>
	<path class="st0" d="M768.3,49l129.8,0"/>
	<path class="st1" d="M934.6,132.5c0.4,0,0.8,0.1,1.2-0.1c0.4-0.1,0.8-0.5,1.1-0.9c0.3-0.5,0.4-1,0.3-1.6c-0.1-0.6-0.3-1.2-0.8-1.7
		c-0.5-0.5-1.1-0.8-1.8-0.9c-0.7-0.1-1.5,0-2.3,0.4s-1.3,1-1.7,1.8c-0.4,0.8-0.5,1.8-0.3,2.7c0.2,0.9,0.7,1.9,1.4,2.5
		c0.8,0.7,1.8,1.2,2.9,1.3s2.3-0.1,3.3-0.7c1-0.6,1.9-1.5,2.4-2.7s0.6-2.5,0.3-3.8c-0.3-1.3-1-2.5-2.1-3.4c-1.1-0.9-2.4-1.5-3.9-1.6
		c-1.5-0.1-3,0.2-4.3,1.1c-1.3,0.8-2.4,2.1-3,3.6s-0.7,3.2-0.3,4.9c0.4,1.6,1.4,3.2,2.7,4.3c1.3,1.1,3.1,1.8,4.9,1.9
		c1.8,0.1,3.7-0.4,5.3-1.4c1.6-1,2.9-2.6,3.6-4.4c0.7-1.8,0.9-4,0.3-5.9c-0.5-2-1.7-3.8-3.3-5.2c-1.7-1.4-3.8-2.2-5.9-2.3
		c-2.2-0.1-4.4,0.7-6.2,2s-3.1,3.2-3.8,5.2c-0.7,2.1-0.7,4.4,0,6.5c0.7,2.1,2,3.9,3.8,5.2c1.8,1.3,4,2,6.2,2c2.2,0,4.4-0.7,6.2-2
		c1.8-1.3,3.1-3.1,3.8-5.2c0.7-2.1,0.7-4.5,0-6.5c-0.7-2-2.3-3.6-3.8-5.2s-3.8,3.4-6.2,8.5"/>
	<path class="st0" d="M1017.3,131.1h-82.7"/>
	<path class="st0" d="M969.4,30.1h-69.8V72h69.8V30.1z"/>
	<path class="st0" d="M934.2,132.4V74"/>
	<path class="st0" d="M345.9,799.7h-49"/>
	<path class="st0" d="M346.3,966.2l0-164.8"/>
	<path class="st1" d="M260.4,715.8c-0.4,0-0.8-0.1-1.2,0.1s-0.8,0.5-1.1,0.9c-0.3,0.5-0.4,1-0.3,1.6c0.1,0.6,0.3,1.2,0.8,1.7
		s1.1,0.8,1.8,0.9c0.7,0.1,1.5,0,2.3-0.4c0.7-0.4,1.3-1,1.7-1.8s0.5-1.8,0.3-2.7s-0.7-1.9-1.4-2.5c-0.8-0.7-1.8-1.2-2.9-1.3
		c-1.1-0.1-2.3,0.1-3.3,0.7s-1.9,1.5-2.4,2.7c-0.5,1.1-0.6,2.5-0.3,3.8c0.3,1.3,1,2.5,2.1,3.4c1.1,0.9,2.4,1.5,3.9,1.6
		c1.5,0.1,3-0.2,4.3-1.1c1.3-0.8,2.4-2.1,3-3.6s0.7-3.2,0.3-4.9c-0.4-1.6-1.4-3.2-2.7-4.3s-3.1-1.8-4.9-1.9
		c-1.8-0.1-3.7,0.4-5.3,1.4c-1.6,1-2.9,2.6-3.6,4.4c-0.7,1.8-0.9,4-0.3,5.9c0.5,2,1.7,3.8,3.3,5.2c1.7,1.4,3.8,2.2,5.9,2.3
		c2.2,0.1,4.4-0.7,6.2-2c1.8-1.3,3.1-3.2,3.8-5.2c0.7-2.1,0.7-4.4,0-6.5s-2-3.9-3.8-5.2c-1.8-1.3-4-2-6.2-2c-2.2,0-4.4,0.7-6.2,2
		c-1.8,1.3-3.1,3.1-3.8,5.2c-0.7,2.1-0.7,4.5,0,6.5s2.3,3.6,3.8,5.2c1.5,1.6,3.8-3.4,6.2-8.5"/>
	<path class="st0" d="M194.8,580.6v43.6l31.4-21.8L194.8,580.6z"/>
	<path class="st0" d="M194.8,594h-16.5"/>
	<path class="st0" d="M194.8,611.1h-17.4"/>
	<path class="st0" d="M178.3,465v128.7"/>
	<path class="st0" d="M177.4,611.1v106.4"/>
	<path class="st0" d="M177.4,717.8h83"/>
	<path class="st0" d="M225.5,818.1h69.8v-41.9h-69.8V818.1z"/>
	<path class="st0" d="M260.8,715.8v58.4"/>
	<path class="st0" d="M262.5,464.2v-86.6"/>
	<path class="st0" d="M216.3,465h45.7"/>
	<path class="st0" d="M787.9,548.8c0-3.6,2.9-6.6,6.6-6.6s6.6,2.9,6.6,6.6c0,3.6-2.9,6.6-6.6,6.6S787.9,552.5,787.9,548.8z"/>
	<path class="st0" d="M787.9,548.8h-21"/>
	<path class="st1" d="M847.9,548.9c-0.1-0.5-0.1-0.9,0.1-1.4c0.2-0.5,0.6-0.9,1.1-1.3s1.2-0.5,1.9-0.4s1.4,0.4,1.9,0.9
		s1,1.3,1.1,2.1c0.1,0.8,0,1.8-0.4,2.6c-0.4,0.8-1.2,1.5-2.1,2s-2,0.6-3.1,0.4c-1.1-0.2-2.1-0.8-2.9-1.7s-1.3-2-1.5-3.3
		c-0.1-1.3,0.1-2.6,0.8-3.8c0.7-1.2,1.8-2.1,3.1-2.7s2.9-0.7,4.3-0.4s2.9,1.2,3.9,2.4s1.7,2.8,1.9,4.5s-0.3,3.4-1.2,4.9
		s-2.4,2.7-4.1,3.4s-3.7,0.8-5.6,0.4c-1.9-0.5-3.6-1.6-4.9-3.1c-1.3-1.5-2.1-3.6-2.2-5.6s0.4-4.3,1.6-6.1s3-3.3,5.1-4.2
		s4.5-1,6.8-0.4c2.3,0.6,4.4,1.9,5.9,3.8c1.6,1.9,2.5,4.3,2.6,6.8s-0.8,5-2.3,7.1s-3.6,3.6-6,4.4s-5,0.8-7.4,0s-4.5-2.3-6-4.4
		s-2.3-4.5-2.3-7.1c0-2.5,0.8-5,2.3-7.1s3.6-3.6,6-4.4s5.1-0.9,7.4,0c2.3,0.9,4.1,2.6,6,4.4s-3.9,4.4-9.7,7.1"/>
	<path class="st0" d="M849.8,545.4V632"/>
	<path class="st0" d="M802.6,548.6h45.7"/>
	<path class="st0" d="M263.5,380.9h166.3"/>
	<path class="st1" d="M345.2,882.4c-0.1-0.5-0.1-0.9,0.1-1.4c0.2-0.5,0.6-0.9,1.1-1.3s1.2-0.5,1.9-0.4c0.7,0.1,1.4,0.4,1.9,0.9
		s1,1.3,1.1,2.1c0.1,0.8,0,1.8-0.4,2.6s-1.2,1.5-2.1,2c-0.9,0.4-2,0.6-3.1,0.4c-1.1-0.2-2.1-0.8-2.9-1.7s-1.3-2-1.5-3.3
		s0.1-2.6,0.8-3.8c0.7-1.2,1.8-2.1,3.1-2.7s2.9-0.7,4.3-0.4c1.5,0.3,2.9,1.2,3.9,2.4s1.7,2.8,1.9,4.5s-0.3,3.4-1.2,4.9
		s-2.4,2.7-4.1,3.4s-3.7,0.8-5.6,0.4c-1.9-0.5-3.6-1.6-4.9-3.1c-1.3-1.5-2.1-3.6-2.2-5.6s0.4-4.3,1.6-6.1c1.2-1.8,3-3.3,5.1-4.2
		c2.1-0.8,4.5-1,6.8-0.4c2.3,0.6,4.4,1.9,5.9,3.8s2.5,4.3,2.6,6.8s-0.8,5-2.3,7.1s-3.6,3.6-6,4.4s-5,0.8-7.4,0
		c-2.4-0.8-4.5-2.3-6-4.4s-2.3-4.5-2.3-7.1c0-2.5,0.8-5,2.3-7.1c1.5-2,3.6-3.6,6-4.4c2.4-0.8,5.1-0.9,7.4,0c2.3,0.9,4.1,2.6,6,4.4
		c1.9,1.8-3.9,4.4-9.7,7.1"/>
	<path class="st1" d="M851.3,464.7c0.1,0.5,0.1,0.9-0.1,1.4c-0.2,0.5-0.6,0.9-1.1,1.3s-1.2,0.5-1.9,0.4s-1.4-0.4-1.9-0.9
		s-1-1.3-1.1-2.1c-0.1-0.8,0-1.8,0.4-2.6c0.4-0.8,1.2-1.5,2.1-2s2-0.6,3.1-0.4c1.1,0.2,2.1,0.8,2.9,1.7s1.3,2,1.5,3.3
		c0.1,1.3-0.1,2.6-0.8,3.8c-0.7,1.2-1.8,2.1-3.1,2.7s-2.9,0.7-4.3,0.4s-2.9-1.2-3.9-2.4s-1.7-2.8-1.9-4.5s0.3-3.4,1.2-4.9
		s2.4-2.7,4.1-3.4s3.7-0.8,5.6-0.4c1.9,0.5,3.6,1.6,4.9,3.1c1.3,1.5,2.1,3.6,2.2,5.6s-0.4,4.3-1.6,6.1s-3,3.3-5.1,4.2
		s-4.5,1-6.8,0.4c-2.3-0.6-4.4-1.9-5.9-3.8c-1.6-1.9-2.5-4.3-2.6-6.8s0.8-5,2.3-7.1s3.6-3.6,6-4.4s5-0.8,7.4,0s4.5,2.3,6,4.4
		s2.3,4.5,2.3,7.1c0,2.5-0.8,5-2.3,7.1s-3.6,3.6-6,4.4s-5.1,0.9-7.4,0c-2.3-0.9-4.1-2.6-6-4.4s3.9-4.4,9.7-7.1"/>
	<path class="st0" d="M849.4,468.2v-86.6"/>
	<path class="st0" d="M934.1,465.1h-83.2"/>
	<path class="st1" d="M344.2,630.5c-0.1,0.5-0.1,0.9,0.1,1.4c0.2,0.5,0.6,0.9,1.1,1.3s1.2,0.5,1.9,0.4s1.4-0.4,1.9-0.9
		s1-1.3,1.1-2.1c0.1-0.8,0-1.8-0.4-2.6c-0.4-0.8-1.2-1.5-2.1-2s-2-0.6-3.1-0.4c-1.1,0.2-2.1,0.8-2.9,1.7s-1.3,2-1.5,3.3
		c-0.1,1.3,0.1,2.6,0.8,3.8c0.7,1.2,1.8,2.1,3.1,2.7s2.9,0.7,4.3,0.4s2.9-1.2,3.9-2.4s1.7-2.8,1.9-4.5s-0.3-3.4-1.2-4.9
		s-2.4-2.7-4.1-3.4s-3.7-0.8-5.6-0.4c-1.9,0.5-3.6,1.6-4.9,3.1c-1.3,1.5-2.1,3.6-2.2,5.6s0.4,4.3,1.6,6.1s3,3.3,5.1,4.2
		s4.5,1,6.8,0.4c2.3-0.6,4.4-1.9,5.9-3.8c1.6-1.9,2.5-4.3,2.6-6.8s-0.8-5-2.3-7.1s-3.6-3.6-6-4.4s-5-0.8-7.4,0s-4.5,2.3-6,4.4
		s-2.3,4.5-2.3,7.1c0,2.5,0.8,5,2.3,7.1s3.6,3.6,6,4.4s5.1,0.9,7.4,0c2.3-0.9,4.1-2.6,6-4.4s-3.9-4.4-9.7-7.1"/>
	<path class="st0" d="M345.8,634.9v-86.6"/>
	<path class="st0" d="M261.4,630.8h83.2"/>
	<path class="st1" d="M514.2,715.5c0.1,0.5,0.1,0.9-0.1,1.4c-0.2,0.5-0.6,0.9-1.1,1.3s-1.2,0.5-1.9,0.4s-1.4-0.4-1.9-0.9
		s-1-1.3-1.1-2.1c-0.1-0.8,0-1.8,0.4-2.6c0.4-0.8,1.2-1.5,2.1-2s2-0.6,3.1-0.4c1.1,0.2,2.1,0.8,2.9,1.7s1.3,2,1.5,3.3
		c0.1,1.3-0.1,2.6-0.8,3.8c-0.7,1.2-1.8,2.1-3.1,2.7s-2.9,0.7-4.3,0.4s-2.9-1.2-3.9-2.4s-1.7-2.8-1.9-4.5s0.3-3.4,1.2-4.9
		s2.4-2.7,4.1-3.4s3.7-0.8,5.6-0.4c1.9,0.5,3.6,1.6,4.9,3.1c1.3,1.5,2.1,3.6,2.2,5.6s-0.4,4.3-1.6,6.1s-3,3.3-5.1,4.2
		s-4.5,1-6.8,0.4c-2.3-0.6-4.4-1.9-5.9-3.8c-1.6-1.9-2.5-4.3-2.6-6.8s0.8-5,2.3-7.1s3.6-3.6,6-4.4s5-0.8,7.4,0s4.5,2.3,6,4.4
		s2.3,4.5,2.3,7.1c0,2.5-0.8,5-2.3,7.1s-3.6,3.6-6,4.4s-5.1,0.9-7.4,0c-2.3-0.9-4.1-2.6-6-4.4s3.9-4.4,9.7-7.1"/>
	<path class="st0" d="M512.3,718.9v-86.6"/>
	<path class="st0" d="M597.1,715.8h-83.2"/>
	<path class="st0" d="M680.8,797.9H545.9"/>
	<path class="st0" d="M520.5,797.3h-85"/>
	<path class="st0" d="M347.2,881.9h420.7"/>
	<path class="st1" d="M681.7,127.9c0.5-0.1,0.9-0.1,1.4,0.1c0.5,0.2,0.9,0.6,1.3,1.1s0.5,1.2,0.4,1.9c-0.1,0.7-0.4,1.4-0.9,1.9
		s-1.3,1-2.1,1.1c-0.8,0.1-1.8,0-2.6-0.4s-1.5-1.2-2-2.1c-0.4-0.9-0.6-2-0.4-3.1c0.2-1.1,0.8-2.1,1.7-2.9s2-1.3,3.3-1.5
		s2.6,0.1,3.8,0.8c1.2,0.7,2.1,1.8,2.7,3.1s0.7,2.9,0.4,4.3c-0.3,1.5-1.2,2.9-2.4,3.9s-2.8,1.7-4.5,1.9s-3.4-0.3-4.9-1.2
		s-2.7-2.4-3.4-4.1s-0.8-3.7-0.4-5.6c0.5-1.9,1.6-3.6,3.1-4.9c1.5-1.3,3.6-2.1,5.6-2.2s4.3,0.4,6.1,1.6c1.8,1.2,3.3,3,4.2,5.1
		c0.8,2.1,1,4.5,0.4,6.8c-0.6,2.3-1.9,4.4-3.8,5.9s-4.3,2.5-6.8,2.6s-5-0.8-7.1-2.3s-3.6-3.6-4.4-6s-0.8-5,0-7.4
		c0.8-2.4,2.3-4.5,4.4-6s4.5-2.3,7.1-2.3c2.5,0,5,0.8,7.1,2.3c2,1.5,3.6,3.6,4.4,6c0.8,2.4,0.9,5.1,0,7.4c-0.9,2.3-2.6,4.1-4.4,6
		c-1.8,1.9-4.4-3.9-7.1-9.7"/>
	<path class="st0" d="M768.3,129.8h-86.6"/>
	<path class="st0" d="M768.3,128.6V49"/>
	<path class="st0" d="M682.9,213.8l0-85.2"/>
	<path class="st0" d="M936.3,713.3V465.1"/>
	<path class="st0" d="M676.5,381.3l-10,20l-20-40l-20,40l-20-40l-20,40l-10-20"/>
	<path class="st0" d="M849.5,381.3h-173"/>
	<path class="st0" d="M576.5,380.8H424"/>
	<path class="st0" d="M850.8,713.4h85.6"/>
	<path class="st0" d="M807.9,816.3v-48h-80v48H807.9z"/>
	<path class="st0" d="M850.8,714.9v84.7"/>
	<path class="st0" d="M598.7,632.6v83"/>
	<path class="st0" d="M809.7,799.4h38"/>
	<path class="st0" d="M768.3,816.3v65.4"/>
	<path class="st1" d="M430.9,716.6c-0.1,0.5-0.1,0.9,0.1,1.4c0.2,0.5,0.6,0.9,1.1,1.3s1.2,0.5,1.9,0.4s1.4-0.4,1.9-0.9
		s1-1.3,1.1-2.1c0.1-0.8,0-1.8-0.4-2.6c-0.4-0.8-1.2-1.5-2.1-2s-2-0.6-3.1-0.4c-1.1,0.2-2.1,0.8-2.9,1.7s-1.3,2-1.5,3.3
		c-0.1,1.3,0.1,2.6,0.8,3.8c0.7,1.2,1.8,2.1,3.1,2.7s2.9,0.7,4.3,0.4s2.9-1.2,3.9-2.4s1.7-2.8,1.9-4.5s-0.3-3.4-1.2-4.9
		s-2.4-2.7-4.1-3.4s-3.7-0.8-5.6-0.4c-1.9,0.5-3.6,1.6-4.9,3.1c-1.3,1.5-2.1,3.6-2.2,5.6s0.4,4.3,1.6,6.1s3,3.3,5.1,4.2
		s4.5,1,6.8,0.4c2.3-0.6,4.4-1.9,5.9-3.8c1.6-1.9,2.5-4.3,2.6-6.8s-0.8-5-2.3-7.1s-3.6-3.6-6-4.4s-5-0.8-7.4,0s-4.5,2.3-6,4.4
		s-2.3,4.5-2.3,7.1c0,2.5,0.8,5,2.3,7.1s3.6,3.6,6,4.4s5.1,0.9,7.4,0c2.3-0.9,4.1-2.6,6-4.4s-3.9-4.4-9.7-7.1"/>
	<path class="st0" d="M432.9,704.6v-72h42"/>
	<path class="st0" d="M432.9,725.3v72h42"/>
	<path class="st0" d="M498.9,632.6c0-6.6-5.4-12-12-12s-12,5.4-12,12s5.4,12,12,12S498.9,639.2,498.9,632.6z"/>
	<path class="st1" d="M531.9,882.3c-0.1,0.5-0.1,0.9,0.1,1.4c0.2,0.5,0.6,0.9,1.1,1.3s1.2,0.5,1.9,0.4s1.4-0.4,1.9-0.9
		s1-1.3,1.1-2.1c0.1-0.8,0-1.8-0.4-2.6c-0.4-0.8-1.2-1.5-2.1-2s-2-0.6-3.1-0.4c-1.1,0.2-2.1,0.8-2.9,1.7s-1.3,2-1.5,3.3
		c-0.1,1.3,0.1,2.6,0.8,3.8c0.7,1.2,1.8,2.1,3.1,2.7s2.9,0.7,4.3,0.4s2.9-1.2,3.9-2.4s1.7-2.8,1.9-4.5s-0.3-3.4-1.2-4.9
		s-2.4-2.7-4.1-3.4s-3.7-0.8-5.6-0.4c-1.9,0.5-3.6,1.6-4.9,3.1c-1.3,1.5-2.1,3.6-2.2,5.6s0.4,4.3,1.6,6.1s3,3.3,5.1,4.2
		s4.5,1,6.8,0.4c2.3-0.6,4.4-1.9,5.9-3.8c1.6-1.9,2.5-4.3,2.6-6.8s-0.8-5-2.3-7.1s-3.6-3.6-6-4.4s-5-0.8-7.4,0s-4.5,2.3-6,4.4
		s-2.3,4.5-2.3,7.1c0,2.5,0.8,5,2.3,7.1s3.6,3.6,6,4.4s5.1,0.9,7.4,0c2.3-0.9,4.1-2.6,6-4.4s-3.9-4.4-9.7-7.1"/>
	<path class="st0" d="M533.9,890.3v-79"/>
	<path class="st0" d="M545.9,799.3c0-6.6-5.4-12-12-12s-12,5.4-12,12s5.4,12,12,12S545.9,805.9,545.9,799.3z"/>
	<path class="st0" d="M598.5,630.6h81"/>
	<path class="st0" d="M501.2,631.6h11"/>
	<path class="st0" d="M679.5,631.9v73.4"/>
	<path class="st0" d="M680.8,745.3v53.1"/>
	<path class="st0" d="M660.7,705.3h40"/>
	<path class="st0" d="M660.7,745.3h40l-20-40L660.7,745.3z"/>
</g>
</svg>
